<?xml version="1.0" standalone="no"?>
<!DOCTYPE svg PUBLIC "-//W3C//DTD SVG 20010904//EN"
 "http://www.w3.org/TR/2001/REC-SVG-20010904/DTD/svg10.dtd">
<svg version="1.0" xmlns="http://www.w3.org/2000/svg"
 width="512.000000pt" height="512.000000pt" viewBox="0 0 512.000000 512.000000"
 preserveAspectRatio="xMidYMid meet">

<g transform="translate(0.000000,512.000000) scale(0.100000,-0.100000)"
fill="#000000" stroke="none">
<path d="M2341 5110 c-509 -50 -956 -227 -1361 -538 -126 -97 -363 -340 -461
-472 -121 -163 -171 -244 -254 -415 -125 -256 -193 -471 -236 -756 -32 -205
-32 -533 0 -738 26 -170 76 -371 126 -507 46 -125 168 -376 231 -474 205 -322
502 -619 824 -824 98 -63 349 -185 474 -231 321 -118 761 -177 1101 -146 770
71 1458 476 1894 1116 240 352 391 770 430 1190 15 154 6 454 -18 614 -42 281
-110 499 -236 756 -131 268 -269 460 -489 681 -221 220 -413 358 -681 489
-256 125 -476 194 -751 235 -160 24 -452 33 -593 20z m425 -1146 c45 -21 74
-70 74 -124 0 -108 -117 -175 -207 -120 -92 56 -94 177 -4 237 40 27 89 29
137 7z m1051 -294 c58 -26 118 -92 143 -156 65 -175 -49 -362 -235 -381 -162
-17 -307 116 -307 282 0 205 209 339 399 255z m-1144 -277 c8 -10 60 -111 115
-224 55 -113 107 -209 116 -212 8 -3 115 -20 238 -38 123 -17 233 -38 246 -45
15 -10 22 -24 22 -44 0 -25 -26 -55 -170 -196 -94 -92 -173 -177 -175 -188 -3
-12 13 -124 35 -251 36 -208 38 -231 24 -252 -9 -15 -24 -23 -43 -23 -16 0
-112 44 -230 106 -111 59 -212 106 -224 106 -12 0 -112 -48 -223 -106 -110
-58 -213 -106 -227 -106 -17 0 -32 9 -42 23 -14 22 -12 43 24 256 26 152 37
241 31 255 -4 12 -83 93 -174 181 -150 142 -166 161 -166 191 0 24 6 38 23 48
12 7 123 28 247 46 124 17 231 37 238 43 8 6 59 101 114 212 55 110 107 208
116 218 8 9 27 17 42 17 15 0 34 -8 43 -17z m-1162 -565 c235 -80 259 -402 39
-516 -61 -32 -70 -34 -140 -30 -87 5 -127 23 -188 81 -139 134 -92 375 88 456
51 23 147 28 201 9z m2334 -299 l40 -74 75 -12 c41 -7 81 -15 88 -18 24 -9 11
-34 -40 -80 -29 -26 -56 -53 -60 -60 -4 -7 -1 -48 6 -91 8 -44 12 -82 9 -86
-9 -15 -34 -8 -103 30 l-69 37 -75 -40 c-52 -28 -78 -37 -85 -30 -8 8 -7 36 1
93 l12 82 -58 59 c-36 37 -57 65 -53 74 3 9 34 19 87 27 l81 13 40 79 c23 45
45 78 52 76 7 -3 30 -38 52 -79z m-1878 -924 c29 -55 54 -104 55 -109 2 -4 58
-17 123 -27 66 -10 121 -18 121 -19 1 0 5 -8 8 -17 5 -12 -17 -41 -81 -105
l-87 -88 17 -102 c21 -125 21 -147 2 -154 -8 -3 -63 20 -123 51 l-108 57 -108
-57 c-142 -76 -145 -74 -118 86 11 63 16 121 12 129 -4 8 -42 46 -84 83 -73
66 -91 97 -63 114 6 4 62 14 122 23 l110 15 51 100 c57 109 70 128 87 123 7
-2 35 -49 64 -103z m2254 56 c36 -36 39 -43 39 -94 0 -49 -4 -61 -31 -91 -55
-63 -145 -67 -203 -10 -57 58 -53 148 9 203 31 27 43 31 92 31 51 0 58 -3 94
-39z m-873 -548 c59 -37 79 -129 42 -190 -54 -89 -199 -83 -243 10 -21 42 -21
77 -4 120 17 39 35 55 84 73 41 15 85 10 121 -13z"/>
</g>
</svg>
